# WaveFront *.obj file (generated by Autodesk ATF)

mtllib CONCRECION_PROFE.mtl

g CUERPO

v 0.000000 -0.500000 0.000000
v 0.000000 -0.500000 0.100000
v 0.000000 -0.400000 0.100000
v 0.000000 -0.400000 0.400000
v 0.000000 -0.500000 0.400000
v 0.000000 -0.500000 0.500000
v 0.000000 -1.000000 1.000000
v 0.000000 -1.000000 0.000000
v -0.900000 -0.100000 0.100000
v -1.000000 -0.100000 0.100000
v -1.000000 -1.000000 0.100000
v -0.100000 -1.000000 0.100000
v -0.100000 -0.900000 0.100000
v -0.900000 -0.900000 0.100000
v -1.000000 -0.500000 0.500000
v -0.900000 -0.500000 0.500000
v -0.500000 -0.500000 0.500000
v -0.100000 -0.900000 0.500000
v -0.100000 -1.000000 0.500000
v -1.000000 -1.000000 0.500000
v -0.100000 -0.900000 0.000000
v -0.900000 -0.900000 0.000000
v -0.900000 -0.100000 0.000000
v -0.100000 -0.557735 0.484530
v -0.442265 -0.557735 0.826795
v -0.500000 -0.500000 1.000000
v -0.100000 -0.500000 0.600000
v -0.100000 -0.900000 0.826795
v -0.100000 -0.500000 0.000000
v -1.000000 -1.000000 1.000000
v -1.000000 -1.000000 0.000000
v -1.000000 -0.500000 1.000000
v -1.000000 -0.500000 0.641421
v -0.900000 -0.500000 0.641421
v -0.500000 -0.500000 0.000000
v -0.500000 -0.500000 0.100000
v 0.000000 -0.400000 0.500000
v 0.500000 -0.500000 0.500000
v 0.500000 0.000000 0.500000
v 0.400000 0.000000 0.500000
v 0.400000 -0.400000 0.500000
v 0.500000 -0.500000 0.000000
v 0.500000 -0.500000 0.100000
v 0.500000 0.258579 0.100000
v 0.400000 0.258579 0.100000
v 0.400000 -0.400000 0.100000
v 0.500000 -0.041421 0.400000
v 0.400000 -0.041421 0.400000
v 0.400000 0.400000 0.100000
v 0.500000 0.500000 0.000000
v -0.000000 0.500000 0.500000
v -0.000000 0.400000 0.500000
v 0.400000 -0.400000 0.400000
v 0.400000 0.400000 0.000000
v 0.400000 -0.400000 0.000000
v 0.500000 -0.500000 0.400000
v -0.400000 -0.400000 0.000000
v 0.358579 0.400000 0.000000
v 0.358579 0.500000 0.000000
v -1.000000 -0.000000 -0.000000
v -0.500000 -0.358579 0.000000
v -0.500000 0.500000 0.000000
v -0.400000 0.500000 0.000000
v -0.400000 -0.400000 0.900000
v -0.400000 0.400000 0.400000
v -0.400000 0.500000 0.400000
v -0.041421 0.500000 0.400000
v -0.041421 0.400000 0.400000
v -0.400000 0.400000 0.500000
v -0.400000 -0.000000 0.500000
v -0.500000 -0.000000 0.500000
v -1.000000 0.141421 0.000000
v -0.500000 -0.358579 0.100000
v -0.900000 0.041421 0.100000
v -0.500000 0.500000 0.500000
vt 0.000000 0.000000 0.000000
vt 0.000000 0.100000 0.000000
vt -0.500000 0.000000 0.000000
vt 0.000000 0.400000 0.000000
vt 0.000000 0.500000 0.000000
vt 0.100000 0.100000 0.000000
vt 0.100000 0.400000 0.000000
vt -0.500000 1.000000 0.000000
vt 0.050000 0.350000 0.000000
vt -0.050000 0.350000 0.000000
vt 0.050000 -0.450000 0.000000
vt -0.050000 -0.550000 0.000000
vt 0.850000 -0.550000 0.000000
vt 0.850000 -0.450000 0.000000
vt 0.250000 0.050000 0.000000
vt 0.150000 0.050000 0.000000
vt 0.250000 -0.450000 0.000000
vt -0.250000 0.050000 0.000000
vt -0.650000 -0.350000 0.000000
vt -0.650000 -0.450000 0.000000
vt 0.050000 0.400000 0.000000
vt -0.050000 0.400000 0.000000
vt 0.050000 -0.400000 0.000000
vt -0.050000 -0.400000 0.000000
vt 0.800000 0.100000 0.000000
vt 0.000000 0.100000 0.000000
vt 0.800000 0.000000 0.000000
vt 0.000000 0.000000 0.000000
vt 0.647335 0.100000 0.000000
vt 0.163299 0.100000 0.000000
vt 0.565685 -0.000000 0.000000
vt 0.000000 -0.000000 0.000000
vt -0.205393 0.153093 0.000000
vt 0.036625 -0.266094 0.000000
vt 0.278642 0.153093 0.000000
vt 0.000000 0.726795 0.000000
vt -0.342265 0.384530 0.000000
vt 0.000000 0.400000 0.000000
vt 0.000000 0.000000 0.000000
vt 0.100000 0.000000 0.000000
vt -0.400000 0.500000 0.000000
vt -0.400000 -0.100000 0.000000
vt 0.000000 -0.100000 0.000000
vt 0.100000 0.400000 0.000000
vt 0.000000 -0.306186 0.000000
vt 0.070711 -0.183712 0.000000
vt -0.353553 0.306186 0.000000
vt 0.353553 0.306186 0.000000
vt 0.707107 0.100000 0.000000
vt 0.625457 -0.073205 0.000000
vt 0.707107 -0.400000 0.000000
vt 0.141421 -0.400000 0.000000
vt 0.141421 -0.073205 0.000000
vt 1.000000 -0.900000 0.000000
vt 1.000000 0.100000 0.000000
vt 0.900000 -0.400000 0.000000
vt 0.000000 0.100000 0.000000
vt 0.000000 -0.400000 0.000000
vt 0.900000 -0.800000 0.000000
vt 0.000000 -0.900000 0.000000
vt 0.000000 -0.800000 0.000000
vt -0.500000 0.250000 0.000000
vt -0.500000 -0.250000 0.000000
vt 0.000000 0.250000 0.000000
vt 0.500000 -0.250000 0.000000
vt 0.500000 -0.258579 0.000000
vt 0.500000 0.100000 0.000000
vt 0.400000 -0.258579 0.000000
vt -0.000000 0.100000 0.000000
vt 0.000000 -0.400000 0.000000
vt 0.400000 -0.400000 0.000000
vt 0.000000 0.000000 0.000000
vt 0.057735 0.081650 0.000000
vt -0.461880 0.326599 0.000000
vt -0.404145 0.408248 0.000000
vt -0.800000 -0.000000 0.000000
vt -0.900000 -0.000000 0.000000
vt -0.800000 -0.400000 0.000000
vt -0.900000 -0.500000 0.000000
vt -0.400000 -0.500000 0.000000
vt -0.400000 -0.400000 0.000000
vt -0.000000 0.000000 0.000000
vt 0.100000 0.000000 0.000000
vt -0.000000 0.500000 0.000000
vt 0.100000 0.500000 0.000000
vt 0.000000 0.658579 0.000000
vt 0.000000 0.000000 0.000000
vt 0.100000 0.658579 0.000000
vt 0.100000 -0.100000 0.000000
vt -0.400000 -0.100000 0.000000
vt -0.400000 0.000000 0.000000
vt 0.000000 0.465685 0.000000
vt 0.000000 0.041421 0.000000
vt 0.100000 0.465685 0.000000
vt 0.100000 0.041421 0.000000
vt 0.000000 0.000000 0.000000
vt 0.100000 0.000000 0.000000
vt -0.000000 0.565685 0.000000
vt 0.100000 0.707107 0.000000
vt 0.100000 -0.000000 0.000000
vt 0.100000 0.707107 0.000000
vt -0.000000 0.141421 0.000000
vt -0.000000 0.707107 0.000000
vt -0.000000 0.041421 0.000000
vt 0.100000 -0.000000 0.000000
vt 0.000000 0.465685 0.000000
vt 0.100000 0.565685 0.000000
vt 0.029289 0.636396 0.000000
vt -0.253553 -0.212132 0.000000
vt -0.182843 -0.282843 0.000000
vt -0.536396 0.070711 0.000000
vt -0.465685 -0.000000 0.000000
vt 0.400000 -0.000000 0.000000
vt 0.500000 -0.000000 0.000000
vt 0.400000 0.758579 0.000000
vt 0.500000 1.000000 0.000000
vt -0.000000 0.500000 0.000000
vt 0.100000 0.458579 0.000000
vt 0.000000 0.000000 0.000000
vt 0.100000 0.000000 0.000000
vt -0.000000 0.707107 0.000000
vt 0.070711 0.777817 0.000000
vt -0.353553 1.060660 0.000000
vt -0.282843 1.131371 0.000000
vt 0.500000 0.900000 0.000000
vt 0.900000 0.900000 0.000000
vt 0.500000 1.000000 0.000000
vt 1.000000 1.000000 0.000000
vt 1.000000 0.541421 0.000000
vt 0.900000 0.541421 0.000000
vt -0.650000 -0.150000 0.000000
vt -0.250000 -0.250000 0.000000
vt 0.150000 -0.150000 0.000000
vt -0.150000 -0.250000 0.000000
vt 0.250000 -0.250000 0.000000
vt -0.650000 0.650000 0.000000
vt -0.750000 0.750000 0.000000
vt -0.750000 -0.250000 0.000000
vt -0.608579 0.650000 0.000000
vt -0.608579 0.750000 0.000000
vt -0.150000 -0.650000 0.000000
vt -0.250000 -0.750000 0.000000
vt 0.750000 -0.750000 0.000000
vt 0.750000 0.250000 0.000000
vt 0.650000 0.150000 0.000000
vt 0.650000 -0.650000 0.000000
vt 0.250000 -0.108579 0.000000
vt 0.150000 0.750000 0.000000
vt 0.250000 0.750000 0.000000
vt 0.100000 1.272792 0.000000
vt 0.029289 1.343503 0.000000
vt -0.182843 0.989949 0.000000
vt -0.536396 0.777817 0.000000
vt 0.029289 0.777817 0.000000
vt 0.100000 0.141421 0.000000
vt 0.100000 0.707107 0.000000
vt 0.382843 0.989949 0.000000
vt 0.312132 1.060660 0.000000
vt 0.100000 -0.000000 0.000000
vt 0.458579 -0.000000 0.000000
vt 0.100000 0.100000 0.000000
vt 0.458579 0.100000 0.000000
vt 0.100000 0.141421 0.000000
vt 0.100000 0.707107 0.000000
vt 0.000000 0.665685 0.000000
vt -0.182843 0.989949 0.000000
vt -0.253553 0.919239 0.000000
vt 0.000000 0.100000 0.000000
vt 0.029289 0.070711 0.000000
vt 0.100000 0.665685 0.000000
vt 0.000000 0.665685 0.000000
vt 0.100000 0.100000 0.000000
vt 0.000000 0.100000 0.000000
vt 0.500000 0.900000 0.000000
vt -0.400000 0.900000 0.000000
vt 0.100000 0.500000 0.000000
vt -0.400000 -0.000000 0.000000
vt 0.000000 0.100000 0.000000
vt 0.000000 -0.000000 0.000000
vt 0.100000 0.100000 0.000000
vt 0.100000 0.707107 0.000000
vt 0.000000 0.565685 0.000000
vt 0.100000 0.000000 0.000000
vt 0.000000 0.000000 0.000000
vt 0.100000 -0.000000 0.000000
vt 0.100000 0.565685 0.000000
vt -0.000000 0.141421 0.000000
vt -0.000000 0.707107 0.000000
vt 0.100000 0.707107 0.000000
vt 0.000000 0.000000 0.000000
vt 0.141421 0.000000 0.000000
vt -0.100000 0.100000 0.000000
vt -0.358579 0.500000 0.000000
vt -0.500000 0.500000 0.000000
vt 0.000000 -0.565685 0.000000
vt 0.100000 -0.565685 0.000000
vt 0.000000 0.000000 0.000000
vt 0.100000 0.000000 0.000000
vt 0.635085 0.326599 0.000000
vt 0.577350 0.408248 0.000000
vt 0.173205 0.000000 0.000000
vt 0.000000 0.000000 0.000000
vt 0.541421 0.400000 0.000000
vt 0.400000 0.400000 0.000000
vt 0.141421 0.000000 0.000000
vt -0.000000 0.000000 0.000000
vt 0.000000 -0.400000 0.000000
vt 0.000000 -0.258579 0.000000
vt -0.400000 -0.800000 0.000000
vt -0.641421 -0.900000 0.000000
vt -0.500000 -0.900000 0.000000
vt 0.500000 -0.400000 0.000000
vt 0.500000 0.100000 0.000000
vt 0.000000 0.100000 0.000000
vt 0.500000 -0.900000 0.000000
vt 0.500000 -0.800000 0.000000
vt 0.000000 -0.000000 0.000000
vt 0.500000 -0.000000 0.000000
vt -0.000000 0.500000 0.000000
vt 0.400000 0.858579 0.000000
vt -0.000000 1.000000 0.000000
vt 0.400000 1.000000 0.000000
vt 0.500000 0.858579 0.000000
vt -0.500000 1.000000 0.000000
vt -0.000000 -0.000000 0.000000
vt 0.353553 0.353553 0.000000
vt -0.000000 0.565685 0.000000
vt 0.424264 0.989949 0.000000
vt 0.636396 0.636396 0.000000
vt 0.707107 0.707107 0.000000
vt 0.000000 0.000000 0.000000
vt 0.000000 -0.565685 0.000000
vt 0.100000 0.100000 0.000000
vt 0.100000 -0.665685 0.000000
vt 0.000000 0.100000 0.000000
vt -0.000000 -0.665685 0.000000
vt 0.100000 0.100000 0.000000
vt 0.100000 -0.807107 0.000000
vt 0.636396 0.636396 0.000000
vt 0.707107 0.707107 0.000000
vt 0.353553 0.919239 0.000000
vt 0.353553 1.060660 0.000000
vt 0.100000 0.665685 0.000000
vt -0.000000 0.707107 0.000000
vt 0.100000 0.100000 0.000000
vt -0.000000 -0.000000 0.000000
vt -0.000000 0.000000 0.000000
vt 0.100000 0.000000 0.000000
vt -0.000000 0.400000 0.000000
vt 0.100000 0.500000 0.000000
vt -0.400000 0.500000 0.000000
vt -0.400000 0.400000 0.000000
vn 1.000000 0.000000 0.000000
vn 1.000000 0.000000 0.000000
vn 1.000000 0.000000 0.000000
vn 1.000000 0.000000 0.000000
vn 1.000000 0.000000 0.000000
vn 1.000000 0.000000 0.000000
vn 1.000000 0.000000 0.000000
vn 1.000000 0.000000 0.000000
vn 0.000000 0.000000 1.000000
vn 0.000000 0.000000 1.000000
vn 0.000000 0.000000 1.000000
vn 0.000000 0.000000 1.000000
vn 0.000000 0.000000 1.000000
vn 0.000000 0.000000 1.000000
vn 0.000000 0.000000 -1.000000
vn 0.000000 0.000000 -1.000000
vn 0.000000 0.000000 -1.000000
vn 0.000000 0.000000 -1.000000
vn 0.000000 0.000000 -1.000000
vn 0.000000 0.000000 -1.000000
vn 0.000000 1.000000 -0.000000
vn 0.000000 1.000000 -0.000000
vn 0.000000 1.000000 -0.000000
vn 0.000000 1.000000 -0.000000
vn 1.000000 0.000000 0.000000
vn 1.000000 0.000000 0.000000
vn 1.000000 0.000000 0.000000
vn 1.000000 0.000000 0.000000
vn -0.408248 0.816497 -0.408248
vn -0.408248 0.816497 -0.408248
vn -0.408248 0.816497 -0.408248
vn -0.408248 0.816497 -0.408248
vn -0.577350 -0.577350 -0.577350
vn -0.577350 -0.577350 -0.577350
vn -0.577350 -0.577350 -0.577350
vn -1.000000 0.000000 0.000000
vn -1.000000 0.000000 0.000000
vn -1.000000 0.000000 0.000000
vn -1.000000 0.000000 0.000000
vn -1.000000 0.000000 0.000000
vn -1.000000 0.000000 0.000000
vn -1.000000 0.000000 0.000000
vn -1.000000 0.000000 0.000000
vn -1.000000 0.000000 0.000000
vn 0.577350 0.577350 0.577350
vn 0.577350 0.577350 0.577350
vn 0.577350 0.577350 0.577350
vn 0.577350 0.577350 0.577350
vn 0.707107 0.707107 -0.000000
vn 0.707107 0.707107 -0.000000
vn 0.707107 0.707107 -0.000000
vn 0.707107 0.707107 -0.000000
vn 0.707107 0.707107 -0.000000
vn 0.000000 -1.000000 0.000000
vn 0.000000 -1.000000 0.000000
vn 0.000000 -1.000000 0.000000
vn 0.000000 -1.000000 0.000000
vn 0.000000 -1.000000 0.000000
vn 0.000000 -1.000000 0.000000
vn 0.000000 -1.000000 0.000000
vn 0.000000 -1.000000 0.000000
vn 0.000000 0.000000 1.000000
vn 0.000000 0.000000 1.000000
vn 0.000000 0.000000 1.000000
vn 0.000000 0.000000 1.000000
vn 0.000000 1.000000 -0.000000
vn 0.000000 1.000000 -0.000000
vn 0.000000 1.000000 -0.000000
vn 0.000000 1.000000 -0.000000
vn 0.000000 1.000000 -0.000000
vn 0.000000 1.000000 -0.000000
vn -0.707107 -0.707107 -0.000000
vn -0.707107 -0.707107 -0.000000
vn -0.707107 -0.707107 -0.000000
vn -0.707107 -0.707107 -0.000000
vn 0.000000 -0.000000 1.000000
vn 0.000000 -0.000000 1.000000
vn 0.000000 -0.000000 1.000000
vn 0.000000 -0.000000 1.000000
vn 0.000000 -0.000000 1.000000
vn 0.000000 -0.000000 1.000000
vn 0.000000 -1.000000 0.000000
vn 0.000000 -1.000000 0.000000
vn 0.000000 -1.000000 0.000000
vn 0.000000 -1.000000 0.000000
vn 0.000000 -0.000000 1.000000
vn 0.000000 -0.000000 1.000000
vn 0.000000 -0.000000 1.000000
vn 0.000000 -0.000000 1.000000
vn 0.000000 -0.000000 1.000000
vn 0.000000 -0.000000 1.000000
vn -0.000000 -0.707107 -0.707107
vn -0.000000 -0.707107 -0.707107
vn -0.000000 -0.707107 -0.707107
vn -0.000000 -0.707107 -0.707107
vn 0.000000 0.707107 0.707107
vn 0.000000 0.707107 0.707107
vn 0.000000 0.707107 0.707107
vn 0.000000 0.707107 0.707107
vn 0.707107 -0.000000 0.707107
vn 0.707107 -0.000000 0.707107
vn 0.707107 -0.000000 0.707107
vn 0.707107 -0.000000 0.707107
vn -1.000000 -0.000000 -0.000000
vn -1.000000 -0.000000 -0.000000
vn -1.000000 -0.000000 -0.000000
vn -1.000000 -0.000000 -0.000000
vn -1.000000 -0.000000 -0.000000
vn -1.000000 -0.000000 -0.000000
vn -1.000000 -0.000000 -0.000000
vn -1.000000 -0.000000 -0.000000
vn -1.000000 -0.000000 -0.000000
vn 1.000000 0.000000 0.000000
vn 1.000000 0.000000 0.000000
vn 1.000000 0.000000 0.000000
vn 1.000000 0.000000 0.000000
vn 1.000000 0.000000 0.000000
vn 1.000000 0.000000 0.000000
vn 1.000000 0.000000 0.000000
vn 1.000000 0.000000 0.000000
vn 0.000000 -1.000000 0.000000
vn 0.000000 -1.000000 0.000000
vn 0.000000 -1.000000 0.000000
vn 0.000000 -1.000000 0.000000
vn -0.000000 0.000000 -1.000000
vn -0.000000 0.000000 -1.000000
vn -0.000000 0.000000 -1.000000
vn -0.000000 0.000000 -1.000000
vn -0.000000 0.000000 -1.000000
vn -0.000000 0.000000 -1.000000
vn -0.000000 -0.000000 -1.000000
vn -0.000000 -0.000000 -1.000000
vn -0.000000 -0.000000 -1.000000
vn -0.000000 -0.000000 -1.000000
vn -0.000000 -0.000000 -1.000000
vn -0.000000 -0.000000 -1.000000
vn -0.000000 -0.000000 -1.000000
vn -0.000000 -0.000000 -1.000000
vn -0.000000 -0.000000 -1.000000
vn -0.000000 -0.000000 -1.000000
vn -0.000000 -0.000000 -1.000000
vn -0.000000 -0.000000 -1.000000
vn -0.000000 -0.000000 -1.000000
vn -0.000000 -0.000000 -1.000000
vn -0.000000 -0.000000 -1.000000
vn -0.000000 -0.000000 -1.000000
vn -0.000000 -0.000000 -1.000000
vn -0.000000 -0.000000 -1.000000
vn -0.000000 -0.000000 -1.000000
vn -0.000000 1.000000 -0.000000
vn -0.000000 1.000000 -0.000000
vn -0.000000 1.000000 -0.000000
vn -0.000000 1.000000 -0.000000
vn -0.000000 1.000000 -0.000000
vn -0.000000 1.000000 -0.000000
vn -0.000000 1.000000 -0.000000
vn -0.000000 1.000000 -0.000000
vn -0.000000 1.000000 -0.000000
vn -0.000000 0.000000 -1.000000
vn -0.000000 0.000000 -1.000000
vn -0.000000 0.000000 -1.000000
vn -0.000000 0.000000 -1.000000
vn 0.000000 -1.000000 0.000000
vn 0.000000 -1.000000 0.000000
vn 0.000000 -1.000000 0.000000
vn 0.000000 -1.000000 0.000000
vn 0.000000 -1.000000 0.000000
vn 0.000000 -1.000000 0.000000
vn 0.000000 -1.000000 0.000000
vn -0.707107 0.000000 -0.707107
vn -0.707107 0.000000 -0.707107
vn -0.707107 0.000000 -0.707107
vn -0.707107 0.000000 -0.707107
vn 1.000000 0.000000 0.000000
vn 1.000000 0.000000 0.000000
vn 1.000000 0.000000 0.000000
vn 1.000000 0.000000 0.000000
vn 1.000000 0.000000 0.000000
vn 1.000000 0.000000 0.000000
vn 1.000000 0.000000 0.000000
vn 0.000000 0.707107 0.707107
vn 0.000000 0.707107 0.707107
vn 0.000000 0.707107 0.707107
vn 0.000000 0.707107 0.707107
vn 0.707107 -0.000000 0.707107
vn 0.707107 -0.000000 0.707107
vn 0.707107 -0.000000 0.707107
vn 0.707107 -0.000000 0.707107
vn 0.707107 -0.000000 0.707107
vn 0.000000 0.000000 -1.000000
vn 0.000000 0.000000 -1.000000
vn 0.000000 0.000000 -1.000000
vn 0.000000 0.000000 -1.000000
vn 0.000000 0.000000 -1.000000
vn 0.000000 -0.707107 -0.707107
vn 0.000000 -0.707107 -0.707107
vn 0.000000 -0.707107 -0.707107
vn 0.000000 -0.707107 -0.707107
vn 0.707107 0.707107 0.000000
vn 0.707107 0.707107 0.000000
vn 0.707107 0.707107 0.000000
vn 0.707107 0.707107 0.000000
vn -0.000000 -0.000000 1.000000
vn -0.000000 -0.000000 1.000000
vn -0.000000 -0.000000 1.000000
vn -0.000000 -0.000000 1.000000
vn -1.000000 0.000000 0.000000
vn -1.000000 0.000000 0.000000
vn -1.000000 0.000000 0.000000
vn -1.000000 0.000000 0.000000
vn -1.000000 0.000000 0.000000
vn -1.000000 0.000000 0.000000
vn -1.000000 0.000000 0.000000
vn -1.000000 0.000000 0.000000
vn -1.000000 0.000000 0.000000
vn -1.000000 0.000000 0.000000
vn -1.000000 0.000000 -0.000000
vn -1.000000 0.000000 -0.000000
vn -1.000000 0.000000 -0.000000
vn -1.000000 0.000000 -0.000000
vn -1.000000 0.000000 -0.000000
vn -1.000000 0.000000 -0.000000
vn -1.000000 0.000000 -0.000000
vn -1.000000 0.000000 -0.000000
vn 0.000000 -1.000000 0.000000
vn 0.000000 -1.000000 0.000000
vn 0.000000 -1.000000 0.000000
vn 0.000000 -1.000000 0.000000
vn 0.000000 -1.000000 0.000000
vn 0.000000 -1.000000 0.000000
vn 1.000000 -0.000000 0.000000
vn 1.000000 -0.000000 0.000000
vn 1.000000 -0.000000 0.000000
vn -0.000000 0.707107 0.707107
vn -0.000000 0.707107 0.707107
vn -0.000000 0.707107 0.707107
vn -0.000000 0.707107 0.707107
vn -0.000000 1.000000 -0.000000
vn -0.000000 1.000000 -0.000000
vn -0.000000 1.000000 -0.000000
vn -0.000000 1.000000 -0.000000
vn -0.000000 1.000000 -0.000000
vn -0.000000 1.000000 -0.000000
vn -0.000000 1.000000 -0.000000
vn -0.000000 1.000000 -0.000000
vn 0.000000 -0.000000 1.000000
vn 0.000000 -0.000000 1.000000
vn 0.000000 -0.000000 1.000000
vn 0.000000 -0.000000 1.000000
vn 0.000000 -0.000000 1.000000
vn 0.000000 -0.000000 1.000000
usemtl Steel_-_Satin
f 1/1/1 2/2/2 8/3/3
f 8/3/3 2/2/2 5/4/4
f 8/3/3 5/4/4 6/5/5
f 2/2/2 3/6/6 5/4/4
f 5/4/4 3/6/6 4/7/7
f 6/5/5 7/8/8 8/3/3
f 9/9/9 10/10/10 14/11/11
f 14/11/11 10/10/10 11/12/12
f 14/11/11 11/12/12 12/13/13
f 12/13/13 13/14/14 14/11/11
f 15/15/15 16/16/16 20/17/17
f 20/17/17 16/16/16 17/18/18
f 20/17/17 17/18/18 18/19/19
f 18/19/19 19/20/20 20/17/17
f 13/21/21 21/22/22 14/23/23
f 14/23/23 21/22/22 22/24/24
f 9/25/25 14/26/26 23/27/27
f 23/27/27 14/26/26 22/28/28
f 24/29/29 25/30/30 27/31/31
f 27/31/31 25/30/30 26/32/32
f 24/33/33 28/34/34 25/35/35
f 28/36/36 24/37/37 18/38/38
f 18/38/38 24/37/37 13/39/39
f 18/38/38 13/39/39 12/40/40
f 27/41/41 29/42/42 24/37/37
f 24/37/37 29/42/42 13/39/39
f 29/42/42 21/43/43 13/39/39
f 12/40/40 19/44/44 18/38/38
f 6/45/45 27/46/46 7/47/47
f 7/47/47 27/46/46 26/48/48
f 26/49/49 25/50/50 17/51/51
f 17/51/51 25/50/50 18/52/52
f 18/52/52 25/50/50 28/53/53
f 8/54/54 7/55/55 19/56/56
f 19/56/56 7/55/55 30/57/57
f 19/56/56 30/57/57 20/58/58
f 19/56/56 12/59/59 8/54/54
f 8/54/54 12/59/59 31/60/60
f 31/60/60 12/59/59 11/61/61
f 32/62/62 30/63/63 26/64/64
f 26/64/64 30/63/63 7/65/65
f 33/66/66 32/67/67 34/68/68
f 34/68/68 32/67/67 26/69/69
f 34/68/68 26/69/69 17/70/70
f 17/70/70 16/71/71 34/68/68
f 9/72/72 23/73/73 36/74/74
f 36/74/74 23/73/73 35/75/75
f 37/76/76 6/77/77 41/78/78
f 41/78/78 6/77/77 38/79/79
f 41/78/78 38/79/79 39/80/80
f 39/80/80 40/81/81 41/78/78
f 2/82/82 1/83/83 43/84/84
f 43/84/84 1/83/83 42/85/85
f 45/86/86 46/87/87 44/88/88
f 44/88/88 46/87/87 43/89/89
f 43/89/89 46/87/87 2/90/90
f 2/90/90 46/87/87 3/91/91
f 44/92/92 47/93/93 45/94/94
f 45/94/94 47/93/93 48/95/95
f 40/96/96 39/97/97 49/98/98
f 49/98/98 39/97/97 50/99/99
f 50/100/100 51/101/101 49/102/102
f 49/102/102 51/101/101 52/103/103
f 48/104/104 40/105/105 45/106/106
f 45/106/106 40/105/105 49/107/107
f 45/106/106 49/107/107 54/108/108
f 53/109/109 41/110/110 48/104/104
f 48/104/104 41/110/110 40/105/105
f 54/108/108 55/111/111 45/106/106
f 45/106/106 55/111/111 46/112/112
f 43/113/113 42/114/114 44/115/115
f 44/115/115 42/114/114 50/116/116
f 44/115/115 50/116/116 39/117/117
f 44/115/115 39/117/117 47/118/118
f 47/118/118 39/117/117 38/119/119
f 47/118/118 38/119/119 56/120/120
f 6/121/121 5/122/122 38/123/123
f 38/123/123 5/122/122 56/124/124
f 4/125/125 53/126/126 5/127/127
f 5/127/127 53/126/126 56/128/128
f 56/128/128 53/126/126 47/129/129
f 47/129/129 53/126/126 48/130/130
f 55/131/131 1/132/132 57/133/133
f 57/133/133 1/132/132 29/134/134
f 57/133/133 29/134/134 35/135/135
f 54/136/136 50/137/137 55/131/131
f 55/131/131 50/137/137 42/138/138
f 55/131/131 42/138/138 1/132/132
f 58/139/139 59/140/140 54/136/136
f 54/136/136 59/140/140 50/137/137
f 29/134/134 1/132/132 21/141/141
f 21/141/141 1/132/132 8/142/142
f 21/141/141 8/142/142 31/143/143
f 60/144/144 23/145/145 31/143/143
f 31/143/143 23/145/145 22/146/146
f 31/143/143 22/146/146 21/141/141
f 35/135/135 61/147/147 57/133/133
f 57/133/133 61/147/147 63/148/148
f 63/148/148 61/147/147 62/149/149
f 46/150/150 55/151/151 3/152/152
f 3/152/152 55/151/151 57/153/153
f 3/152/152 57/153/153 4/154/154
f 4/154/154 57/153/153 64/155/155
f 4/154/154 64/155/155 37/156/156
f 41/157/157 53/158/158 37/156/156
f 37/156/156 53/158/158 4/154/154
f 66/159/159 67/160/160 65/161/161
f 65/161/161 67/160/160 68/162/162
f 49/163/163 52/164/164 68/165/165
f 68/165/165 52/164/164 69/166/166
f 68/165/165 69/166/166 65/167/167
f 68/165/165 58/168/168 49/163/163
f 49/163/163 58/168/168 54/169/169
f 68/170/170 67/171/171 58/172/172
f 58/172/172 67/171/171 59/173/173
f 64/174/174 57/175/175 70/176/176
f 70/176/176 57/175/175 63/177/177
f 70/176/176 63/177/177 65/178/178
f 65/178/178 63/177/177 66/179/179
f 65/178/178 69/180/180 70/176/176
f 26/181/181 64/182/182 71/183/183
f 71/183/183 64/182/182 70/184/184
f 26/185/185 27/186/186 64/187/187
f 64/187/187 27/186/186 37/188/188
f 37/188/188 27/186/186 6/189/189
f 60/190/190 72/191/191 23/192/192
f 23/192/192 72/191/191 61/193/193
f 23/192/192 61/193/193 35/194/194
f 10/195/195 9/196/196 15/197/197
f 15/197/197 9/196/196 16/198/198
f 73/199/199 61/200/200 74/201/201
f 74/201/201 61/200/200 72/202/202
f 36/203/203 73/204/204 9/205/205
f 9/205/205 73/204/204 74/206/206
f 15/207/207 33/208/208 10/209/209
f 10/209/209 33/208/208 72/210/210
f 10/209/209 72/210/210 60/211/211
f 15/207/207 20/212/212 33/208/208
f 33/208/208 20/212/212 30/213/213
f 33/208/208 30/213/213 32/214/214
f 60/211/211 31/215/215 10/209/209
f 10/209/209 31/215/215 11/216/216
f 75/217/217 62/218/218 71/219/219
f 71/219/219 62/218/218 73/220/220
f 71/219/219 73/220/220 17/221/221
f 17/221/221 73/220/220 36/222/222
f 62/218/218 61/223/223 73/220/220
f 17/221/221 26/224/224 71/219/219
f 26/225/225 17/226/226 27/227/227
f 27/227/227 17/226/226 29/228/228
f 29/228/228 17/226/226 36/229/229
f 29/228/228 36/229/229 35/230/230
f 16/231/231 9/232/25 34/233/232
f 34/233/232 9/232/25 74/234/233
f 34/235/234 74/236/235 33/237/236
f 33/237/236 74/236/235 72/238/237
f 63/239/238 62/240/239 66/241/240
f 66/241/240 62/240/239 75/242/241
f 66/241/240 75/242/241 67/243/242
f 67/243/242 75/242/241 51/244/243
f 67/243/242 51/244/243 59/245/244
f 59/245/244 51/244/243 50/246/245
f 52/247/246 51/248/247 69/249/248
f 69/249/248 51/248/247 75/250/249
f 69/249/248 75/250/249 71/251/250
f 71/251/250 70/252/251 69/249/248
g 1

v 0.000000 -0.400000 0.100000
v -0.400000 0.000000 0.100000
v -0.400000 -0.400000 0.500000
v 0.000000 -0.400000 0.000000
v -0.400000 0.000000 0.000000
v -0.400000 -0.400000 0.000000
vt -0.282843 -0.244949 0.000000
vt 0.282843 -0.244949 0.000000
vt -0.000000 0.244949 0.000000
vt 0.565685 0.100000 0.000000
vt -0.000000 0.100000 0.000000
vt 0.565685 0.000000 0.000000
vt 0.000000 0.000000 0.000000
vt -0.050000 -0.200000 0.000000
vt 0.450000 -0.200000 0.000000
vt 0.350000 0.200000 0.000000
vt 0.450000 0.200000 0.000000
vt -0.250000 -0.150000 0.000000
vt 0.150000 -0.150000 0.000000
vt 0.150000 0.250000 0.000000
vt -0.100000 0.900000 0.000000
vt 0.300000 0.500000 0.000000
vt 0.400000 0.900000 0.000000
vt 0.400000 0.500000 0.000000
vn 0.577350 0.577350 0.577350
vn 0.577350 0.577350 0.577350
vn 0.577350 0.577350 0.577350
vn 0.707107 0.707107 -0.000000
vn 0.707107 0.707107 -0.000000
vn 0.707107 0.707107 -0.000000
vn 0.707107 0.707107 -0.000000
vn 0.000000 -1.000000 0.000000
vn 0.000000 -1.000000 0.000000
vn 0.000000 -1.000000 0.000000
vn 0.000000 -1.000000 0.000000
vn -0.000000 -0.000000 -1.000000
vn -0.000000 -0.000000 -1.000000
vn -0.000000 -0.000000 -1.000000
vn -1.000000 -0.000000 -0.000000
vn -1.000000 -0.000000 -0.000000
vn -1.000000 -0.000000 -0.000000
vn -1.000000 -0.000000 -0.000000
f 76/253/252 77/254/253 78/255/254
f 77/256/255 76/257/256 80/258/257
f 80/258/257 76/257/256 79/259/258
f 78/260/259 81/261/260 76/262/261
f 76/262/261 81/261/260 79/263/262
f 79/264/263 81/265/264 80/266/265
f 78/267/266 77/268/267 81/269/268
f 81/269/268 77/268/267 80/270/269
# 81 vertices
# 270 texture params
# 269 normals
# 174 facets

# 2 groups
