# Blender 4.5.3 LTS
# www.blender.org
mtllib MODELO.mtl
o DISCONTINUIDAD_FINAL
v -9.000000 6.000000 5.000000
v -5.000000 5.000000 5.000000
v -9.000000 0.000000 5.000000
v -5.000000 1.000000 5.000000
v -5.000000 -0.000000 5.000000
v -5.000000 10.000000 5.000000
v -10.000000 5.000000 5.000000
v -10.000000 4.000000 5.000000
v -15.000000 5.000000 5.000000
v -15.000000 4.000000 5.000000
v -1.000000 1.000000 9.000000
v -1.000000 -0.000000 9.000000
v -0.000000 -0.000000 10.000000
v -0.000000 0.000000 11.414214
v -5.000000 0.000000 6.414214
v -0.000000 1.000000 9.000000
v 0.000000 5.000000 5.000000
v -1.000000 5.000000 5.000000
v -5.000000 1.000000 6.414214
v -1.000000 1.000000 10.414214
v -1.000000 6.414214 5.000000
v 0.000000 6.414214 5.000000
v -6.000000 1.000000 10.000000
v -10.000000 1.000000 6.000000
v -6.000000 0.000000 10.000000
v -10.000000 0.000000 6.000000
v -6.000000 5.000000 6.000000
v -13.585787 0.000000 15.000000
v -13.585787 0.000000 14.000000
v -9.585787 4.000000 15.000000
v -9.585787 4.000000 14.000000
v -15.000000 1.000000 5.000000
v -15.000000 0.000000 5.000000
v -15.000000 1.000000 12.585787
v -15.000000 0.000000 15.000000
v -15.000000 5.000000 10.000000
v -15.000000 4.000000 9.585787
v -14.000000 4.000000 9.585787
v -14.000000 5.000000 10.000000
v -14.000000 1.000000 12.585787
v -14.000000 1.000000 14.000000
v -14.000000 0.000000 14.000000
v -14.000000 4.000000 6.000000
v -14.000000 5.000000 6.000000
v -14.000000 0.000000 6.000000
v -14.000000 1.000000 6.000000
v -10.000000 5.000000 15.000000
v -10.000000 5.000000 14.000000
v -10.000000 1.000000 5.000000
v -10.000000 5.000000 6.000000
v -10.000000 4.000000 6.000000
v -6.000000 9.000000 6.000000
v -5.000000 5.000000 10.000000
v -6.000000 5.000000 10.000000
v -5.000000 0.000000 15.000000
v -5.000000 5.000000 15.000000
v -6.000000 0.000000 15.000000
v -6.000000 4.000000 14.000000
v -6.000000 5.000000 14.000000
v -6.000000 4.000000 15.000000
v -10.000000 0.000000 5.000000
v -5.577350 8.267949 4.422650
v -9.000000 5.000000 1.000000
v -9.000000 8.267949 1.000000
v -9.000000 6.566988 4.000000
v -9.000000 7.000000 4.000000
v -5.816988 9.750000 4.000000
v -6.000000 10.000000 4.000000
v -1.000000 10.000000 4.000000
v -1.000000 9.750000 4.000000
v 0.000000 10.000000 5.000000
v 0.000000 10.000000 -0.000000
v -1.000000 10.000000 -0.000000
v -10.000000 10.000000 -0.000000
v -9.000000 9.900000 1.100000
v -9.000000 10.000000 1.000000
v -9.000000 4.845299 4.422650
v -9.000000 10.000000 -0.000000
v -9.000000 5.000000 0.000000
v -10.000000 -0.000000 0.000000
v -9.000000 1.000000 0.000000
v -0.000000 -0.000000 0.000000
v -0.000000 1.000000 0.000000
v -9.000000 6.000000 0.000000
v -1.000000 6.000000 0.000000
v 0.000000 5.000000 0.000000
v -1.000000 -0.000000 1.000000
v -9.000000 -0.000000 1.000000
v -9.000000 1.000000 1.000000
v -9.000000 9.750000 0.816987
v -9.000000 9.750000 0.250000
v -9.000000 6.000000 0.250000
v -1.000000 9.750000 0.250000
v -1.000000 6.000000 0.250000
v -1.000000 1.000000 1.000000
vn -0.0000 -0.0000 -1.0000
vn 0.7071 -0.0000 -0.7071
vn -0.0000 -1.0000 -0.0000
vn -0.0000 -0.7071 -0.7071
vn -0.7071 -0.0000 0.7071
vn -0.0000 1.0000 -0.0000
vn -1.0000 -0.0000 -0.0000
vn -0.0000 0.7071 0.7071
vn -0.5774 0.5774 0.5774
vn 0.7071 -0.7071 -0.0000
vn 1.0000 -0.0000 -0.0000
vn -0.7071 0.7071 -0.0000
vn -0.0000 -0.0000 1.0000
vn -0.5774 0.5774 0.5773
vn -0.5774 0.5773 0.5773
vn 0.4082 -0.4082 0.8165
vn 0.5774 -0.5774 -0.5774
s 0
usemtl Material.001
f 1//1 2//1 3//1
f 3//1 2//1 4//1
f 3//1 4//1 5//1
f 1//1 6//1 2//1
f 7//1 8//1 9//1
f 9//1 8//1 10//1
f 11//2 12//2 4//2
f 4//2 12//2 5//2
f 13//3 14//3 12//3
f 12//3 14//3 15//3
f 12//3 15//3 5//3
f 16//4 11//4 17//4
f 17//4 11//4 18//4
f 19//5 15//5 20//5
f 20//5 15//5 14//5
f 4//6 19//6 11//6
f 11//6 19//6 20//6
f 18//7 11//7 21//7
f 21//7 11//7 20//7
f 21//8 20//8 22//8
f 22//8 20//8 14//8
f 23//5 24//5 25//5
f 25//5 24//5 26//5
f 24//9 23//9 27//9
f 28//10 29//10 30//10
f 30//10 29//10 31//10
f 32//7 33//7 34//7
f 34//7 33//7 35//7
f 34//7 35//7 36//7
f 34//7 36//7 37//7
f 37//7 36//7 9//7
f 37//7 9//7 10//7
f 38//11 39//11 40//11
f 40//11 39//11 41//11
f 40//11 41//11 42//11
f 43//11 44//11 38//11
f 38//11 44//11 39//11
f 42//11 45//11 40//11
f 40//11 45//11 46//11
f 35//12 47//12 41//12
f 41//12 47//12 48//12
f 39//8 36//8 41//8
f 41//8 36//8 35//8
f 34//4 37//4 40//4
f 40//4 37//4 38//4
f 24//6 49//6 46//6
f 46//6 49//6 32//6
f 46//6 32//6 34//6
f 34//6 40//6 46//6
f 50//6 7//6 44//6
f 44//6 7//6 9//6
f 44//6 9//6 36//6
f 36//6 39//6 44//6
f 24//13 46//13 26//13
f 26//13 46//13 45//13
f 51//3 43//3 8//3
f 8//3 43//3 10//3
f 10//3 43//3 37//3
f 37//3 43//3 38//3
f 6//8 52//8 53//8
f 53//8 52//8 54//8
f 7//12 50//12 1//12
f 1//12 50//12 52//12
f 1//12 52//12 6//12
f 4//11 2//11 19//11
f 19//11 2//11 53//11
f 19//11 53//11 55//11
f 55//11 53//11 56//11
f 2//11 6//11 53//11
f 55//11 15//11 19//11
f 25//7 57//7 23//7
f 23//7 57//7 58//7
f 23//7 58//7 54//7
f 54//7 58//7 59//7
f 57//7 60//7 58//7
f 52//7 27//7 54//7
f 54//7 27//7 23//7
f 41//1 48//1 31//1
f 31//1 48//1 59//1
f 31//1 59//1 58//1
f 31//1 29//1 41//1
f 41//1 29//1 42//1
f 31//3 58//3 30//3
f 30//3 58//3 60//3
f 49//1 61//1 32//1
f 32//1 61//1 33//1
f 52//13 50//13 27//13
f 27//13 50//13 51//13
f 27//13 51//13 24//13
f 44//13 43//13 50//13
f 50//13 43//13 51//13
f 60//13 56//13 30//13
f 30//13 56//13 47//13
f 30//13 47//13 28//13
f 28//13 47//13 35//13
f 57//13 55//13 60//13
f 60//13 55//13 56//13
f 48//6 47//6 59//6
f 59//6 47//6 56//6
f 59//6 56//6 53//6
f 53//6 54//6 59//6
f 6//5 62//5 2//5
f 2//5 62//5 63//5
f 63//5 62//5 64//5
f 65//1 66//1 67//1
f 67//1 66//1 68//1
f 67//1 68//1 69//1
f 69//1 70//1 67//1
f 68//6 6//6 69//6
f 69//6 6//6 71//6
f 69//6 71//6 72//6
f 72//6 73//6 69//6
f 22//13 71//13 21//13
f 21//13 71//13 6//13
f 21//13 6//13 2//13
f 2//13 18//13 21//13
f 7//9 1//9 66//9
f 66//9 1//9 6//9
f 66//9 6//9 68//9
f 7//9 66//9 74//9
f 74//14 66//14 75//14
f 74//15 75//15 76//15
f 6//16 1//16 62//16
f 62//16 1//16 77//16
f 78//6 74//6 76//6
f 74//1 79//1 80//1
f 80//1 79//1 81//1
f 80//1 81//1 82//1
f 82//1 81//1 83//1
f 78//1 84//1 74//1
f 74//1 84//1 79//1
f 84//1 85//1 79//1
f 79//1 85//1 86//1
f 86//1 85//1 72//1
f 72//1 85//1 73//1
f 7//7 80//7 8//7
f 8//7 80//7 49//7
f 8//7 49//7 24//7
f 7//7 74//7 80//7
f 80//7 61//7 49//7
f 24//7 51//7 8//7
f 13//3 12//3 82//3
f 82//3 12//3 87//3
f 82//3 87//3 88//3
f 3//3 61//3 88//3
f 88//3 61//3 80//3
f 88//3 80//3 82//3
f 5//3 15//3 3//3
f 3//3 15//3 26//3
f 3//3 26//3 61//3
f 61//3 26//3 45//3
f 61//3 45//3 33//3
f 33//3 45//3 35//3
f 35//3 45//3 42//3
f 35//3 42//3 28//3
f 28//3 42//3 29//3
f 26//3 15//3 25//3
f 25//3 15//3 55//3
f 25//3 55//3 57//3
f 1//11 3//11 77//11
f 77//11 3//11 89//11
f 77//11 89//11 63//11
f 63//11 89//11 81//11
f 63//11 81//11 79//11
f 3//11 88//11 89//11
f 63//11 64//11 77//11
f 65//11 90//11 66//11
f 66//11 90//11 75//11
f 75//11 90//11 76//11
f 76//11 90//11 91//11
f 76//11 91//11 78//11
f 78//11 91//11 84//11
f 84//11 91//11 92//11
f 91//6 90//6 93//6
f 93//6 90//6 67//6
f 93//6 67//6 70//6
f 85//6 84//6 94//6
f 94//6 84//6 92//6
f 93//1 94//1 91//1
f 91//1 94//1 92//1
f 70//7 69//7 93//7
f 93//7 69//7 73//7
f 93//7 73//7 85//7
f 85//7 94//7 93//7
f 79//3 86//3 63//3
f 63//3 86//3 2//3
f 2//3 86//3 18//3
f 18//3 86//3 17//3
f 11//7 95//7 12//7
f 12//7 95//7 87//7
f 89//13 88//13 95//13
f 95//13 88//13 87//13
f 77//17 64//17 62//17
f 90//9 65//9 67//9
f 14//11 13//11 16//11
f 16//11 13//11 82//11
f 16//11 82//11 83//11
f 14//11 16//11 22//11
f 22//11 16//11 17//11
f 22//11 17//11 86//11
f 86//11 72//11 22//11
f 22//11 72//11 71//11
f 11//6 16//6 95//6
f 95//6 16//6 83//6
f 95//6 83//6 81//6
f 81//6 89//6 95//6
